# xmcd
#
# Track frame offsets:
#	150
#	18907
#	47167
#	66018
#	84933
#	101917
#	118849
#	138034
#	154915
#	173148
#	193401
#	219664
#	232651
#	259316
#
# Disc length: 3749 seconds
#
# Revision: 1
# Processed by: cddbd v1.5.2PL0 Copyright (c) Steve Scherf et al.
# Submitted via: audiograbber 1.83.01
#
DISCID=c00ea30e
DTITLE=Diverse - barjazz collection
DYEAR=2007
DGENRE=Jazz
TTITLE0=Charlie Hunter feat. Norah Jones - More Than This
TTITLE1=Dianne Reeves - You Taught My Heart To Sing
TTITLE2=Holly Cole - I Can See Clearly Now
TTITLE3=Caecilie Norby - Gentle On My Mind
TTITLE4=Keri Noble - Piece Of My Heart
TTITLE5=Marlena Shaw - You
TTITLE6=Carmen McRae - The Man I Love
TTITLE7=Victoria Tolstoy - For Your Love
TTITLE8=Nina Simone - (I Loves You) Porgy
TTITLE9=Z Star - Slow Dancin'
TTITLE10=Gabin - Midnight Caffè
TTITLE11=Julie London - 'Round Midnight
TTITLE12=Angela McCluskey - Don'T Explain
TTITLE13=Cassandra Wilson - Harvest Moon
EXTD=
EXTT0=
EXTT1=
EXTT2=
EXTT3=
EXTT4=
EXTT5=
EXTT6=
EXTT7=
EXTT8=
EXTT9=
EXTT10=
EXTT11=
EXTT12=
EXTT13=
PLAYORDER=
